#!OML:ASF X:\für Bonn\!DataBase\2005_08_10_Bjorn_Final\c3d\bjorn.ASF
:FULLY-SPECIFIED
:DEGREES
338
root 0.572487 2.24431 10.3975 -2055.02 -13.3336 176.247
lowerback 53.4777 6.7698 13.9477
upperback 26.5271 1.0912 2.37713
thorax 10.1947 -4.42261 -5.05431
lowerneck 15.8206 7.63406 2.46561
upperneck 16.627 8.7356 -3.6023
head 3.13045 3.60561 -1.81515
rclavicle 2.29596e-014 1.15295e-014
rhumerus -61.6573 -1.55629 -80.4882
rradius 67.0959
rwrist -69.7268
rhand -22.9417 -32.0252
rfingers 7.12502
rthumb 3.49942 -61.9763
lclavicle 2.29596e-014 1.15295e-014
lhumerus -73.2794 -44.9866 112.738
lradius 68.0925
lwrist 59.8806
lhand -37.3084 36.4563
lfingers 7.12502
lthumb -10.3721 786.18
rfemur -421.879 -35.1963 355.23
rtibia 100.444
rfoot 31.7083 3.95299
rtoes -1.29632
lfemur -78.668 15.3675 -14.0724
ltibia 142.512
lfoot 7.77103 -8.25906
ltoes 0.35516
339
root 0.57555 2.24493 10.4081 -2054.82 -13.6858 176.284
lowerback 53.2119 6.7363 13.7001
upperback 26.5114 1.00721 2.34713
thorax 10.1569 -4.44352 -4.95572
lowerneck 15.6171 7.69136 2.70935
upperneck 16.7605 8.8537 -3.60347
head 3.23027 3.67796 -1.85092
rclavicle -4.41302e-014 -3.85642e-014
rhumerus -61.6674 -1.49082 -80.5105
rradius 67.0679
rwrist -69.7795
rhand -23.0578 -32.073
rfingers 7.12502
rthumb 3.3873 -62.0258
lclavicle -4.41302e-014 -3.85642e-014
lhumerus -73.004 -44.887 112.586
lradius 67.9321
lwrist 59.9162
lhand -37.3188 36.4424
lfingers 7.12502
lthumb -10.3821 786.166
rfemur -422.05 -35.2085 354.996
rtibia 100.361
rfoot 31.9387 4.10664
rtoes -1.11404
lfemur -78.7684 12.0184 -15.258
ltibia 141.043
lfoot 8.61167 -6.9579
ltoes 0.301316
340
root 0.578306 2.24564 10.4165 -2054.62 -14.0357 176.31
lowerback 52.9537 6.70474 13.4546
upperback 26.4947 0.926785 2.31852
thorax 10.1191 -4.46374 -4.85688
lowerneck 15.4461 7.75038 2.93531
upperneck 16.8625 8.97373 -3.63423
head 3.31521 3.75092 -1.89473
rclavicle 4.09496e-014 -3.97569e-016
rhumerus -61.7029 -1.40585 -80.5143
rradius 67.0926
rwrist -69.7934
rhand -23.1284 -32.2283
rfingers 7.12502
rthumb 3.31906 -62.1822
lclavicle 4.09496e-014 -3.97569e-016
lhumerus -72.7456 -44.7532 112.433
lradius 67.783
lwrist 59.9439
lhand -37.2779 36.369
lfingers 7.12502
lthumb -10.3428 786.095
rfemur -422.234 -35.2048 354.761
rtibia 100.295
rfoot 32.1269 4.22699
rtoes -0.970073
lfemur -78.8051 9.25902 -16.3215
ltibia 139.526
lfoot 9.3429 -6.0845
ltoes 0.382765
341
root 0.580937 2.24591 10.4254 -2054.41 -14.35 176.351
lowerback 52.6628 6.66733 13.2446
upperback 26.484 0.856112 2.29032
thorax 10.0988 -4.47105 -4.77778
lowerneck 15.3311 7.78068 3.22933
upperneck 16.9032 9.07211 -3.72925
head 3.37662 3.8189 -1.97389
rclavicle -2.57426e-014 -1.35174e-014
rhumerus -61.7658 -1.33346 -80.5281
rradius 67.163
rwrist -69.8517
rhand -23.2111 -32.3949
rfingers 7.12502
rthumb 3.23927 -62.3501
lclavicle -2.57426e-014 -1.35174e-014
lhumerus -72.5041 -44.6451 112.265
lradius 67.6552
lwrist 59.9418
lhand -37.2719 36.2895
lfingers 7.12502
lthumb -10.337 786.015
rfemur -422.435 -35.1749 354.579
rtibia 100.23
rfoot 32.2772 4.38397
rtoes -0.858546
lfemur -78.8333 6.95109 -17.2362
ltibia 137.969
lfoot 9.99345 -5.42013
ltoes 0.574678
342
root 0.581734 2.24572 10.4329 -2054.22 -14.6582 176.399
lowerback 52.3718 6.61971 13.0644
upperback 26.4952 0.771033 2.26785
thorax 10.1101 -4.48742 -4.70534
lowerneck 15.2001 7.80872 3.4683
upperneck 16.905 9.16568 -3.83207
head 3.42405 3.88354 -2.04592
rclavicle -9.53172e-014 2.26615e-014
rhumerus -61.8093 -1.26062 -80.5431
rradius 67.2409
rwrist -69.8513
rhand -23.2596 -32.5767
rfingers 7.12502
rthumb 3.19237 -62.5325
lclavicle -9.53172e-014 2.26615e-014
lhumerus -72.2152 -44.5466 112.076
lradius 67.5209
lwrist 59.9099
lhand -37.2383 36.2142
lfingers 7.12502
lthumb -10.3046 785.942
rfemur -422.622 -35.15 354.394
rtibia 100.165
rfoot 32.404 4.57625
rtoes -0.917398
lfemur -78.8402 4.95278 -18.0506
ltibia 136.399
lfoot 10.661 -4.85093
ltoes 0.877996
343
root 0.582658 2.24655 10.4421 -2054 -14.9498 176.446
lowerback 52.0502 6.57986 12.893
upperback 26.5147 0.698742 2.24509
thorax 10.138 -4.49358 -4.64268
lowerneck 15.1035 7.82838 3.69821
upperneck 16.8651 9.24746 -3.92316
head 3.44928 3.9437 -2.11375
rclavicle -5.83433e-014 3.33958e-014
rhumerus -61.8434 -1.21874 -80.5471
rradius 67.3145
rwrist -69.8147
rhand -23.2515 -32.8273
rfingers 7.12502
rthumb 3.20022 -62.7831
lclavicle -5.83433e-014 3.33958e-014
lhumerus -71.9573 -44.4596 111.869
lradius 67.4407
lwrist 59.9236
lhand -37.2314 36.1531
lfingers 7.12502
lthumb -10.2979 785.881
rfemur -422.827 -35.1004 354.24
rtibia 100.09
rfoot 32.5367 4.77538
rtoes -0.994541
lfemur -78.8244 3.26583 -18.7807
ltibia 134.802
lfoot 11.2512 -4.19901
ltoes 0.621345
344
root 0.582415 2.24623 10.4509 -2053.8 -15.228 176.493
lowerback 51.7316 6.53187 12.7412
upperback 26.536 0.623335 2.21872
thorax 10.1714 -4.49957 -4.59213
lowerneck 15.0326 7.88359 3.85274
upperneck 16.8391 9.35563 -3.93302
head 3.46731 4.01232 -2.14181
rclavicle 1.08437e-013 -2.62396e-014
rhumerus -61.8996 -1.18555 -80.5428
rradius 67.4119
rwrist -69.7164
rhand -23.1993 -33.0957
rfingers 7.12502
rthumb 3.25059 -63.0506
lclavicle 1.08437e-013 -2.62396e-014
lhumerus -71.7161 -44.3767 111.676
lradius 67.3709
lwrist 59.8886
lhand -37.2109 36.0985
lfingers 7.12502
lthumb -10.2781 785.827
rfemur -423.023 -35.0394 354.099
rtibia 100.01
rfoot 32.6521 4.99492
rtoes -1.14145
lfemur -78.8096 1.84951 -19.4319
ltibia 133.226
lfoot 11.8463 -3.58032
ltoes 0.420607
345
root 0.581817 2.24613 10.4593 -2053.59 -15.4646 176.556
lowerback 51.384 6.48549 12.6189
upperback 26.5665 0.558755 2.21339
thorax 10.2256 -4.49843 -4.53723
lowerneck 15.0033 7.93912 3.96767
upperneck 16.7818 9.45864 -3.93292
head 3.46392 4.07704 -2.16118
rclavicle -7.05686e-014 -9.54166e-015
rhumerus -61.9372 -1.15965 -80.5131
rradius 67.4846
rwrist -69.6822
rhand -23.1345 -33.3319
rfingers 7.12502
rthumb 3.31322 -63.2859
lclavicle -7.05686e-014 -9.54166e-015
lhumerus -71.454 -44.2758 111.477
lradius 67.2822
lwrist 59.8163
lhand -37.1802 36.011
lfingers 7.12502
lthumb -10.2485 785.741
rfemur -423.229 -34.9535 354.003
rtibia 99.9307
rfoot 32.7867 5.1776
rtoes -1.18672
lfemur -78.7673 0.734276 -19.9774
ltibia 131.669
lfoot 12.3975 -3.01735
ltoes 0.468924
346
root 0.580881 2.2456 10.4679 -2053.37 -15.6988 176.616
lowerback 51.0336 6.43593 12.5071
upperback 26.5983 0.495319 2.19182
thorax 10.2846 -4.49245 -4.50545
lowerneck 14.9749 7.97853 4.16357
upperneck 16.7222 9.55382 -3.96784
head 3.46676 4.14242 -2.20649
rclavicle -3.26007e-014 -7.55382e-015
rhumerus -62.0041 -1.12188 -80.5163
rradius 67.6029
rwrist -69.6748
rhand -23.074 -33.5048
rfingers 7.12502
rthumb 3.37159 -63.4579
lclavicle -3.26007e-014 -7.55382e-015
lhumerus -71.2035 -44.1794 111.258
lradius 67.2035
lwrist 59.7189
lhand -37.1623 35.9517
lfingers 7.12502
lthumb -10.2313 785.683
rfemur -423.448 -34.8693 353.92
rtibia 99.8541
rfoot 32.925 5.42748
rtoes -1.32119
lfemur -78.7238 -0.178273 -20.4802
ltibia 130.156
lfoot 12.8994 -2.54266
ltoes 0.441287
347
root 0.579163 2.24523 10.4755 -2053.18 -15.891 176.696
lowerback 50.6683 6.37742 12.4328
upperback 26.6465 0.424153 2.18978
thorax 10.3715 -4.4918 -4.47071
lowerneck 14.9675 8.0235 4.33423
upperneck 16.6351 9.65566 -4.01489
head 3.45598 4.21037 -2.2526
rclavicle 6.58971e-014 4.77083e-015
rhumerus -62.0565 -1.06147 -80.5069
rradius 67.7102
rwrist -69.6649
rhand -23.0181 -33.6783
rfingers 7.12502
rthumb 3.42564 -63.6305
lclavicle 6.58971e-014 4.77083e-015
lhumerus -70.9444 -44.1024 111.064
lradius 67.1362
lwrist 59.6265
lhand -37.158 35.8822
lfingers 7.12502
lthumb -10.227 785.614
rfemur -423.625 -34.759 353.853
rtibia 99.7812
rfoot 33.0717 5.52714
rtoes -1.21347
lfemur -78.637 -0.916512 -20.9054
ltibia 128.674
lfoot 13.2877 -2.11704
ltoes 0.197613
348
root 0.576817 2.24449 10.48 -2052.97 -16.0785 176.761
lowerback 50.3073 6.32106 12.3631
upperback 26.6832 0.365809 2.17401
thorax 10.4466 -4.47978 -4.45455
lowerneck 15.0103 8.04982 4.53589
upperneck 16.524 9.73855 -4.09517
head 3.4317 4.27028 -2.31755
rclavicle 4.65156e-014 -4.77083e-014
rhumerus -62.1392 -1.00066 -80.5083
rradius 67.8433
rwrist -69.6902
rhand -22.9236 -33.8698
rfingers 7.12502
rthumb 3.51689 -63.8205
lclavicle 4.65156e-014 -4.77083e-014
lhumerus -70.8163 -44.0875 110.958
lradius 67.1452
lwrist 59.5379
lhand -37.1394 35.8863
lfingers 7.12502
lthumb -10.2092 785.619
rfemur -423.85 -34.6517 353.81
rtibia 99.7354
rfoot 33.171 5.80458
rtoes -1.51109
lfemur -78.4815 -1.49155 -21.3274
ltibia 127.204
lfoot 13.5679 -1.69748
ltoes -0.10168
